<?xml version="1.0" standalone="no"?>
<!DOCTYPE svg PUBLIC "-//W3C//DTD SVG 20010904//EN"
 "http://www.w3.org/TR/2001/REC-SVG-20010904/DTD/svg10.dtd">
<svg version="1.0" xmlns="http://www.w3.org/2000/svg"
 width="735.000000pt" height="733.000000pt" viewBox="0 0 735.000000 733.000000"
 preserveAspectRatio="xMidYMid meet">

<g transform="translate(0.000000,733.000000) scale(0.100000,-0.100000)"
fill="#000000" stroke="none">
<path d="M3805 6994 c-55 -37 -196 -137 -283 -202 -68 -49 -74 -52 -79 -33 -3
12 -8 21 -12 21 -3 0 -23 -32 -44 -70 -33 -63 -41 -70 -67 -70 -19 0 -29 5
-28 13 3 14 -1 15 -145 16 -104 1 -108 2 -102 21 8 24 11 24 -90 6 -97 -18
-150 -36 -221 -77 -30 -17 -54 -26 -54 -20 0 6 -11 11 -24 11 -16 0 -26 7 -29
21 -5 20 -10 19 -94 -26 -48 -27 -112 -63 -141 -82 -29 -18 -56 -33 -61 -33
-5 0 -19 16 -31 34 -11 19 -27 33 -33 30 -7 -2 -21 10 -31 28 -61 107 -78 129
-93 116 -16 -13 -26 -5 -64 51 l-15 24 -33 -52 c-47 -73 -79 -156 -114 -299
-22 -88 -35 -121 -44 -118 -14 6 -14 7 -17 -150 l-1 -91 -53 -58 c-157 -171
-216 -322 -228 -578 -6 -148 11 -308 46 -426 21 -73 36 -93 46 -67 7 17 24 22
24 7 0 -5 18 -41 41 -80 38 -67 59 -87 59 -58 0 6 4 18 9 26 8 12 18 7 56 -24
32 -26 49 -34 54 -26 4 6 15 9 23 6 15 -6 15 -13 -2 -74 -29 -105 -69 -210
-106 -281 -69 -131 -202 -266 -346 -352 -38 -22 -68 -44 -68 -49 0 -43 402 97
520 181 37 26 37 23 4 -43 -90 -178 -222 -327 -428 -482 -106 -80 -116 -90
-92 -93 32 -4 204 52 379 123 70 29 127 49 127 45 0 -22 -115 -207 -263 -423
-255 -371 -257 -496 -8 -688 l33 -26 -89 -12 c-106 -13 -225 -43 -302 -76 -31
-13 -98 -41 -150 -63 -121 -51 -191 -102 -321 -232 -157 -157 -251 -308 -302
-487 -18 -65 -22 -103 -22 -223 0 -132 2 -152 27 -224 122 -351 337 -587 668
-734 l84 -37 555 0 c660 0 851 12 1465 90 282 36 369 51 415 75 90 46 210 185
220 254 4 35 9 41 28 40 12 0 152 -1 311 -2 l288 -2 12 -60 c7 -35 22 -72 35
-87 22 -25 30 -27 119 -31 53 -2 108 -1 122 2 32 8 50 48 60 133 l7 62 41 6
c23 3 89 10 147 16 326 33 637 94 937 185 208 63 221 104 80 261 -30 34 -90
114 -133 178 -75 113 -99 135 -144 135 -11 0 -62 42 -117 98 -82 83 -145 134
-336 274 -16 12 -14 18 29 78 65 91 120 212 135 295 9 52 10 132 3 315 -5 135
-9 299 -9 365 l0 120 57 67 c190 223 268 457 268 804 l0 150 48 23 c73 35 200
123 269 186 171 154 316 434 353 678 14 92 2 190 -34 279 -19 46 -22 65 -15
100 4 24 8 81 9 128 0 70 -4 93 -23 127 -36 69 -103 132 -176 166 -56 27 -80
32 -163 35 -175 7 -304 -27 -534 -142 l-144 -73 -80 78 c-362 353 -818 540
-1401 574 l-105 7 4 198 c5 204 1 254 -21 284 -12 16 -15 15 -52 -10z m42 -41
c20 -70 -5 -525 -31 -585 -6 -14 6 -24 63 -53 39 -19 71 -37 71 -40 0 -2 -13
-11 -30 -20 -34 -18 -40 -45 -10 -45 28 0 26 -8 -20 -92 -46 -84 -48 -98 -17
-99 58 -2 59 -13 3 -55 l-53 -42 12 -63 c17 -86 25 -184 15 -198 -6 -10 -16
-10 -49 0 -22 7 -43 10 -46 7 -3 -2 6 -37 19 -76 l25 -72 -22 1 c-12 0 -43 4
-69 8 -27 4 -48 4 -48 -1 0 -5 16 -32 35 -61 41 -61 42 -67 13 -67 -13 0 -58
-12 -100 -26 -73 -24 -93 -37 -68 -46 19 -6 -53 -88 -126 -143 -252 -190 -575
-321 -866 -351 -38 -4 -68 -9 -68 -12 0 -3 8 -11 17 -18 10 -7 15 -15 12 -19
-4 -3 -88 -7 -188 -8 -99 -1 -181 -4 -181 -7 0 -4 5 -11 12 -18 6 -6 9 -14 6
-17 -5 -6 -196 62 -238 85 -17 9 -24 9 -29 1 -5 -7 -23 4 -51 30 l-44 42 -12
-28 -11 -28 -30 55 c-16 30 -35 69 -42 86 -13 30 -15 31 -31 17 -15 -14 -18
-12 -28 22 -31 109 -37 166 -36 353 0 168 3 207 22 278 28 106 78 201 150 287
106 124 102 114 102 237 0 78 3 107 11 102 14 -8 29 14 29 42 0 42 71 277 106
352 l36 77 24 -47 c26 -50 33 -55 52 -36 17 17 32 0 72 -81 26 -53 39 -70 52
-67 10 2 22 -8 34 -30 10 -19 22 -34 27 -34 5 0 23 11 40 24 36 27 228 136
239 136 5 0 8 -7 8 -16 0 -12 7 -14 29 -9 21 4 30 2 34 -9 5 -13 17 -10 70 19
73 40 157 71 221 80 42 7 44 6 39 -14 -5 -21 -3 -21 126 -21 98 0 131 -3 131
-12 0 -9 15 -13 45 -11 57 1 125 -7 125 -17 0 -4 -12 -12 -26 -19 -26 -12 -28
-31 -4 -39 7 -3 10 0 7 5 -4 5 7 20 23 32 40 29 38 37 -10 45 -22 3 -40 10
-40 14 0 18 48 84 54 74 4 -7 34 10 79 43 103 78 311 223 319 224 4 1 11 -11
15 -26z m528 -517 c125 -27 304 -81 383 -117 118 -53 163 -76 242 -124 103
-61 213 -148 231 -181 7 -14 19 -22 26 -19 8 2 11 0 8 -5 -3 -5 1 -20 9 -32
23 -37 29 -85 15 -138 -17 -68 -35 -71 -117 -21 -37 22 -80 49 -97 58 -16 10
-32 20 -35 23 -16 18 -83 49 -92 44 -7 -4 -8 -2 -4 4 4 7 -13 21 -44 37 -27
14 -50 23 -50 20 0 -3 -10 3 -22 15 -12 11 -25 20 -29 20 -4 0 -45 17 -91 39
-100 47 -204 84 -220 79 -6 -2 32 -22 86 -43 126 -50 295 -144 399 -222 81
-61 217 -185 217 -199 0 -3 -28 -33 -62 -66 -68 -64 -51 -65 22 -1 49 43 189
149 232 176 92 57 259 144 360 185 162 68 236 84 378 86 118 1 128 -1 182 -27
61 -30 142 -110 164 -164 8 -18 14 -61 14 -95 -1 -248 -152 -481 -443 -687
-65 -45 -116 -85 -114 -88 3 -2 68 36 145 86 77 50 146 91 152 91 13 0 143 64
174 85 11 8 24 15 28 15 20 0 6 -198 -22 -295 -6 -22 -13 -52 -15 -67 -10 -62
-98 -197 -190 -291 -119 -121 -276 -218 -417 -257 -91 -25 -132 -25 -295 0
-369 56 -600 129 -917 287 -226 113 -383 216 -517 340 -53 49 -79 64 -79 45 0
-5 8 -17 18 -28 33 -35 78 -108 147 -234 88 -160 192 -319 293 -445 45 -55 79
-101 77 -103 -5 -5 -87 18 -140 40 -76 31 -150 84 -246 176 -100 95 -185 196
-220 262 -13 25 -26 47 -29 50 -12 12 -30 51 -30 65 0 8 -4 15 -10 15 -5 0
-10 8 -10 18 0 9 -15 64 -33 122 -19 58 -34 118 -35 134 -1 16 -6 34 -10 40
-10 13 6 223 18 246 5 9 -2 29 -22 58 -16 24 -27 46 -24 49 3 3 29 1 58 -5 29
-5 56 -8 59 -6 3 2 -5 35 -18 75 -13 39 -22 73 -19 76 3 3 19 -5 35 -17 17
-11 35 -19 40 -16 22 14 20 116 -4 271 -6 40 -6 40 59 90 36 28 65 53 66 57 0
3 -19 9 -42 13 -24 4 -46 9 -51 12 -9 5 39 96 63 118 15 13 22 13 71 -1 189
-56 270 -139 634 -645 286 -397 563 -667 832 -810 l58 -31 -65 6 c-159 17
-376 79 -505 143 -199 100 -397 275 -505 445 -56 88 -77 108 -86 84 -7 -19
119 -199 200 -284 199 -209 480 -354 790 -407 95 -16 346 -21 346 -6 0 4 -26
14 -58 20 -168 33 -438 224 -667 473 -142 154 -156 179 -36 65 212 -200 358
-272 556 -270 192 1 352 56 505 171 171 131 263 239 308 365 23 62 27 92 30
220 4 172 1 182 -80 223 -43 22 -70 27 -152 31 -56 3 -123 0 -151 -5 -27 -6
-72 -16 -100 -22 -74 -15 -208 -61 -226 -76 -8 -8 -19 -14 -24 -14 -26 0 -240
-118 -231 -127 2 -3 50 16 105 41 55 25 126 53 158 61 168 44 347 -10 483
-145 71 -70 130 -169 130 -217 0 -31 -38 -92 -93 -150 -38 -40 -45 -41 -40 -5
9 69 -156 292 -262 353 -52 30 -65 34 -65 21 0 -4 13 -13 29 -20 17 -7 48 -31
70 -52 76 -74 114 -279 72 -391 -52 -137 -162 -198 -410 -229 -140 -18 -252
13 -398 109 -165 108 -322 268 -610 621 -7 8 -47 62 -90 120 -42 58 -120 148
-173 200 -80 80 -112 104 -197 148 -56 28 -108 52 -117 52 -8 0 -16 6 -19 13
-2 8 -8 9 -18 2 -8 -5 -4 0 9 11 l24 21 -55 32 c-78 44 -86 57 -57 84 17 17
21 18 17 5 -8 -22 11 -28 84 -28 54 0 74 -10 49 -25 -5 -3 -10 -13 -10 -21 0
-10 14 -14 55 -14 30 0 55 5 55 10 0 6 -15 10 -34 10 -32 0 -35 2 -33 27 2 26
-1 28 -53 37 -30 5 -57 11 -59 13 -3 2 6 11 19 21 67 48 205 50 405 8z m920
-676 c-3 -5 -12 -10 -18 -10 -7 0 -6 4 3 10 19 12 23 12 15 0z m973 -135 c-3
-3 -9 2 -12 12 -6 14 -5 15 5 6 7 -7 10 -15 7 -18z m-2638 -279 c0 -11 -187
-318 -237 -390 -151 -216 -267 -328 -607 -586 -191 -145 -415 -367 -501 -496
-59 -89 -116 -221 -128 -294 -9 -59 -8 -72 9 -106 23 -47 102 -108 167 -130
27 -9 46 -18 44 -20 -7 -7 -130 35 -172 59 -59 34 -77 65 -82 144 -6 83 15
182 59 270 65 132 290 368 519 544 350 268 470 378 595 544 63 84 162 233 184
275 30 59 124 190 136 190 8 0 14 -2 14 -4z m60 -135 c0 -74 -20 -163 -64
-284 -29 -81 -92 -210 -117 -241 -5 -6 -35 -47 -68 -91 -53 -72 -175 -198
-271 -280 -457 -391 -544 -488 -610 -681 -37 -106 -27 -243 24 -342 21 -40
101 -122 154 -157 60 -40 45 -42 -29 -4 -93 46 -148 85 -205 144 -100 104
-180 259 -163 317 4 16 6 35 3 43 -3 8 1 48 10 90 9 43 13 82 9 88 -3 7 -3 9
1 5 8 -6 88 137 89 160 0 6 2 10 5 7 3 -2 18 15 35 38 17 23 34 44 39 45 4 2
8 9 8 15 0 7 13 23 30 37 21 17 26 28 19 36 -7 8 -6 15 2 20 8 4 9 3 5 -4 -4
-7 -3 -12 2 -12 14 0 82 77 74 85 -4 4 -2 5 5 3 6 -2 33 18 60 43 26 25 95 83
153 129 299 237 392 335 565 590 42 63 84 120 93 126 9 7 12 16 7 24 -5 8 -4
11 2 7 5 -3 31 18 57 48 63 73 76 72 76 -4z m2590 15 c0 -2 -8 -10 -17 -17
-16 -13 -17 -12 -4 4 13 16 21 21 21 13z m217 -28 c-3 -8 -6 -5 -6 6 -1 11 2
17 5 13 3 -3 4 -12 1 -19z m-3127 -168 c-75 -146 -296 -375 -555 -575 -99 -76
-223 -175 -275 -219 -56 -48 -88 -70 -77 -54 20 32 22 42 5 31 -7 -4 -3 6 10
22 12 17 49 66 81 110 92 124 378 449 423 481 15 10 25 21 22 25 -2 4 1 11 7
15 8 4 9 3 5 -4 -11 -19 8 -14 30 7 18 16 51 39 125 86 9 5 38 22 65 37 27 15
65 38 84 51 19 14 42 25 52 24 15 -1 15 -4 -2 -37z m367 18 c-3 -8 -6 -5 -6 6
-1 11 2 17 5 13 3 -3 4 -12 1 -19z m2715 -5 c-3 -16 -7 -22 -10 -15 -4 13 4
42 11 42 2 0 2 -12 -1 -27z m-2703 -145 c36 -80 117 -217 169 -286 14 -18 23
-34 21 -36 -2 -2 -76 5 -164 15 -88 10 -183 18 -211 19 -28 0 -53 3 -57 6 -3
3 11 31 31 62 20 32 65 115 99 186 35 70 67 126 70 123 3 -4 22 -44 42 -89z
m-659 48 c0 -2 -8 -10 -17 -17 -16 -13 -17 -12 -4 4 13 16 21 21 21 13z m-281
-132 c12 -15 21 -33 21 -41 0 -8 5 -11 11 -7 24 14 -26 -62 -85 -129 -34 -40
-72 -83 -83 -97 -12 -14 -32 -36 -44 -50 -68 -79 -259 -321 -259 -330 0 -5 -4
-9 -10 -8 -5 2 -40 -26 -77 -62 -38 -37 -81 -76 -97 -88 -16 -12 -25 -22 -20
-22 5 0 -9 -12 -32 -28 -22 -15 -53 -40 -67 -56 -15 -16 -27 -25 -27 -20 0 5
-4 4 -8 -3 -11 -17 -146 -88 -247 -128 -82 -34 -253 -95 -262 -95 -2 0 35 33
84 72 234 192 335 346 504 768 58 145 82 194 94 192 19 -4 19 8 -1 36 l-15 22
63 1 c118 1 307 15 314 22 4 4 -1 14 -12 21 -22 16 -33 13 111 39 114 21 121
20 144 -9z m1539 -85 c59 -33 164 -87 234 -121 95 -45 125 -64 118 -73 -6 -7
-7 -37 -4 -74 l7 -61 67 0 67 0 -14 -77 c-34 -187 18 -411 118 -512 100 -99
211 -62 280 93 42 96 60 286 39 411 -4 28 -7 51 -6 51 0 1 26 -3 57 -9 l57
-10 7 -115 7 -115 52 -51 c85 -84 107 -153 61 -196 -33 -31 -32 -43 5 -35 30
7 31 6 24 -22 -28 -115 -99 -225 -193 -299 -99 -78 -287 -160 -479 -209 -224
-57 -425 -79 -712 -79 -385 0 -749 65 -1002 177 l-58 26 0 103 c0 88 15 267
24 275 1 1 31 -26 67 -60 64 -63 131 -108 179 -122 24 -7 24 -6 -7 26 -74 78
-121 260 -109 421 11 151 60 304 113 361 25 25 32 27 113 27 48 0 89 -3 93 -6
3 -4 -4 -27 -17 -53 -115 -228 -43 -580 138 -673 51 -26 137 -28 184 -4 123
64 201 245 188 437 -6 89 -34 200 -60 234 -9 11 -16 23 -16 27 0 3 28 4 63 0
56 -5 67 -10 117 -52 86 -74 176 -128 259 -154 86 -27 165 -41 180 -32 5 3
-15 30 -46 59 -77 73 -142 157 -212 275 -57 96 -161 295 -161 308 0 3 16 -4
35 -16 20 -12 84 -49 143 -81z m-2290 -6 c20 -9 39 -16 42 -15 3 0 6 -18 8
-40 3 -49 -31 -167 -60 -203 -11 -14 -18 -28 -15 -31 3 -3 -5 -15 -17 -28 -11
-12 -43 -48 -70 -80 -26 -31 -71 -75 -98 -97 -27 -21 -46 -39 -42 -39 5 0 -17
-13 -48 -29 -62 -32 -198 -84 -205 -77 -2 2 18 19 44 39 51 37 152 139 195
197 38 50 103 184 128 260 47 146 50 153 93 159 4 0 24 -6 45 -16z m69 -55
c-3 -7 -5 -2 -5 12 0 14 2 19 5 13 2 -7 2 -19 0 -25z m1822 -299 c18 -51 14
-58 -51 -89 -34 -17 -63 -30 -64 -30 -1 0 -12 16 -24 35 -25 40 -27 35 44 112
27 30 30 31 56 18 15 -8 33 -29 39 -46z m1164 34 c34 -9 66 -20 70 -24 5 -4
-17 -17 -48 -28 -54 -20 -59 -21 -76 -5 -22 19 -33 50 -24 64 8 13 4 13 78 -7z
m107 -84 l0 -40 -52 3 c-45 3 -53 6 -56 24 -3 18 5 25 40 37 65 23 68 22 68
-24z m-1973 -21 c-45 -131 -53 -350 -19 -478 11 -41 24 -84 28 -95 18 -49 -15
6 -39 65 -42 105 -56 155 -63 224 -6 60 -19 85 -28 54 -14 -48 -48 -232 -61
-326 -16 -122 -19 -311 -6 -380 5 -24 5 -40 1 -35 -16 16 -71 189 -87 268 -21
107 -21 303 0 375 41 145 45 150 151 252 55 53 108 104 115 112 22 23 24 13 8
-36z m2590 -145 c-9 -306 -64 -472 -229 -695 -63 -85 -83 -97 -49 -29 30 57
93 279 92 321 0 26 2 30 8 16 4 -11 10 -15 13 -10 21 35 79 286 68 294 -4 3 1
37 11 75 20 80 23 115 9 115 -12 0 -26 -27 -34 -70 -11 -60 -83 -195 -122
-229 -20 -18 -38 -31 -39 -29 -2 2 6 30 17 63 16 46 22 92 26 198 l4 137 62 1
c33 0 81 6 106 13 25 8 49 14 54 15 5 0 6 -80 3 -186z m-380 171 c-3 -3 -12
-4 -19 -1 -8 3 -5 6 6 6 11 1 17 -2 13 -5z m-1483 -59 c3 -8 1 -27 -4 -41 -9
-23 -14 -25 -57 -22 -44 3 -48 5 -48 28 0 21 7 27 45 37 59 15 57 15 64 -2z
m-2024 1 c0 -2 -7 -7 -16 -10 -8 -3 -12 -2 -9 4 6 10 25 14 25 6z m1737 -252
c42 -21 63 -25 98 -21 58 6 117 45 139 92 15 32 20 35 34 23 35 -28 61 -64 62
-84 0 -38 -32 -128 -65 -180 -116 -181 -308 -154 -405 57 -18 40 -35 94 -38
119 -4 43 -2 48 33 79 l38 33 25 -46 c20 -36 38 -52 79 -72z m1556 109 c9 -14
-21 -167 -41 -213 -41 -94 -108 -146 -173 -133 -67 13 -142 117 -173 236 -16
61 -13 70 20 87 23 13 27 11 54 -18 36 -40 67 -52 132 -52 59 0 109 26 135 71
17 28 37 37 46 22z m-2758 -63 c-3 -5 -12 -10 -18 -10 -7 0 -6 4 3 10 19 12
23 12 15 0z m-215 -35 c-7 -8 -18 -15 -24 -15 -6 0 -2 7 8 15 25 19 32 19 16
0z m617 -42 c-117 -232 -136 -600 -41 -785 8 -16 12 -28 9 -28 -3 0 3 -10 15
-22 11 -12 20 -25 20 -29 0 -5 12 -20 27 -34 49 -44 9 -27 -98 44 -57 38 -124
90 -148 116 -140 152 -129 361 31 573 22 30 43 50 46 46 4 -4 1 -9 -5 -11 -7
-3 -13 -9 -13 -15 0 -6 6 -6 15 2 11 9 15 9 15 1 0 -7 5 -9 10 -6 6 4 4 12 -5
21 -8 9 -15 19 -15 23 0 3 25 31 56 61 31 30 54 47 51 37 -4 -11 -3 -16 3 -12
6 3 10 12 10 18 0 16 30 60 37 54 2 -3 -7 -27 -20 -54z m-461 5 c4 -7 4 -10
-1 -6 -4 4 -15 2 -24 -5 -14 -11 -14 -10 -2 6 16 20 18 21 27 5z m-203 -85
c-79 -111 -123 -225 -123 -321 0 -22 -6 -47 -14 -55 -8 -8 -13 -25 -10 -38 3
-19 3 -20 -4 -6 -8 19 -45 -16 -208 -195 -56 -62 -57 -64 -38 -93 17 -26 14
-42 -5 -30 -6 3 -11 15 -11 26 0 26 -24 20 -28 -7 -1 -10 -5 -30 -9 -44 -5
-23 -6 -24 -13 -5 -7 17 -9 17 -9 3 -1 -10 -5 -18 -10 -18 -5 0 -12 -13 -16
-30 -4 -16 -14 -34 -22 -39 -9 -5 -13 -13 -8 -21 5 -8 14 -2 28 21 12 18 22
39 23 47 3 19 14 28 14 11 0 -8 9 -1 19 15 11 17 17 34 14 39 -3 5 0 8 7 5 25
-8 21 -23 -15 -62 -19 -21 -35 -40 -35 -42 0 -2 -16 -27 -35 -54 -19 -27 -35
-51 -34 -52 0 -2 -3 -11 -6 -21 -4 -9 -16 -43 -26 -75 -10 -31 -18 -47 -18
-34 -1 12 -6 22 -12 22 -6 0 -8 -7 -5 -16 3 -9 6 -28 6 -42 0 -21 2 -24 10
-12 8 13 10 13 10 -2 0 -9 -5 -18 -11 -20 -6 -2 -7 -11 -3 -22 7 -17 8 -18 13
-3 5 12 9 8 17 -17 l10 -34 -30 22 c-44 30 -105 95 -123 130 -41 78 2 236 107
393 32 48 63 93 67 98 23 28 156 230 198 300 26 44 57 88 69 98 11 10 15 16 9
12 -8 -4 -11 -1 -7 9 3 9 12 12 22 9 11 -5 14 -2 9 10 -3 9 -3 16 1 14 4 -1
28 14 52 34 25 20 77 57 115 83 39 25 81 54 95 65 14 12 26 21 27 21 1 0 -23
-35 -54 -77z m700 -5 c-4 -63 5 -194 24 -333 l5 -40 -31 35 c-41 47 -81 127
-81 163 0 34 70 247 81 247 4 0 5 -33 2 -72z m-536 -10 c-3 -8 -6 -5 -6 6 -1
11 2 17 5 13 3 -3 4 -12 1 -19z m3243 8 c0 -3 -4 -8 -10 -11 -5 -3 -10 -1 -10
4 0 6 5 11 10 11 6 0 10 -2 10 -4z m47 -18 c-3 -8 -6 -5 -6 6 -1 11 2 17 5 13
3 -3 4 -12 1 -19z m-3341 -54 c-8 -21 -15 -34 -15 -28 -1 15 20 76 25 71 2 -2
-2 -21 -10 -43z m3331 14 c-3 -8 -6 -5 -6 6 -1 11 2 17 5 13 3 -3 4 -12 1 -19z
m-83 -14 c3 -8 2 -12 -4 -9 -6 3 -10 10 -10 16 0 14 7 11 14 -7z m31 -41 c-4
-21 -8 -43 -8 -50 0 -7 -4 -10 -9 -7 -4 3 -8 0 -8 -7 0 -7 -3 -9 -6 -6 -4 3 1
22 10 41 9 19 16 41 16 50 0 9 3 16 6 16 3 0 3 -17 -1 -37z m-28 -5 c-3 -8 -6
-5 -6 6 -1 11 2 17 5 13 3 -3 4 -12 1 -19z m-2387 2 c0 -5 -2 -10 -4 -10 -3 0
-8 5 -11 10 -3 6 -1 10 4 10 6 0 11 -4 11 -10z m-942 -45 c0 -19 2 -58 5 -87
4 -37 3 -44 -2 -23 -5 17 -9 48 -10 70 -2 37 -3 39 -16 21 -8 -10 -12 -23 -8
-29 3 -6 1 -7 -5 -3 -12 7 -1 48 20 73 15 18 16 17 16 -22z m59 -42 c-3 -10
-5 -4 -5 12 0 17 2 24 5 18 2 -7 2 -21 0 -30z m3217 -31 c-4 -9 -7 -48 -7 -87
1 -64 0 -67 -11 -38 -13 38 -26 53 -26 30 0 -9 -4 -17 -10 -17 -5 0 -19 -9
-30 -20 -15 -15 -20 -16 -20 -6 0 29 13 46 34 46 17 0 18 2 6 10 -12 8 -11 10
5 7 11 -1 25 -6 31 -9 7 -5 11 4 12 24 1 24 -2 28 -8 18 -6 -8 -10 -10 -10 -4
0 5 7 19 15 30 8 10 15 28 15 39 1 11 4 14 7 7 3 -7 2 -20 -3 -30z m61 8 c-4
-12 -9 -19 -12 -17 -3 3 -2 15 2 27 4 12 9 19 12 17 3 -3 2 -15 -2 -27z
m-3361 -27 c-4 -16 -14 -37 -22 -48 l-14 -20 7 20 c4 11 12 32 17 48 5 15 12
27 14 27 2 0 1 -12 -2 -27z m95 -38 l0 -20 -9 20 c-5 11 -9 29 -9 40 l0 20 9
-20 c5 -11 9 -29 9 -40z m-133 3 c-6 -23 -12 -35 -14 -26 -3 14 14 68 21 68 2
0 -1 -19 -7 -42z m3381 -5 c-3 -10 -5 -4 -5 12 0 17 2 24 5 18 2 -7 2 -21 0
-30z m-3329 1 c0 -15 -4 -22 -10 -16 -5 5 -6 16 -2 25 9 23 12 21 12 -9z m-66
-66 c-7 -7 -12 -8 -12 -2 0 14 12 26 19 19 2 -3 -1 -11 -7 -17z m19 -14 c-11
-15 -21 -24 -21 -20 0 12 33 57 37 52 3 -3 -4 -17 -16 -32z m658 -13 c-2 -6
-12 4 -22 22 l-18 32 21 -21 c13 -12 21 -27 19 -33z m2698 17 c-3 -8 -6 -5 -6
6 -1 11 2 17 5 13 3 -3 4 -12 1 -19z m-3296 -25 c-6 -10 -11 -14 -11 -9 0 11
-29 -25 -30 -37 0 -5 5 -5 12 -1 6 4 8 3 4 -4 -3 -5 0 -12 6 -15 7 -2 10 -8 5
-13 -4 -4 -17 1 -28 12 l-20 21 33 36 c34 37 47 42 29 10z m41 9 c4 -13 -1
-18 -16 -19 -12 -1 -15 1 -8 4 6 3 12 11 12 19 0 20 7 18 12 -4z m3206 -10 c2
-7 -1 -12 -7 -12 -6 0 -11 5 -11 10 0 16 -17 11 -24 -7 -4 -9 -2 -21 4 -27 7
-7 10 -5 10 6 0 11 6 15 19 11 10 -2 26 4 36 14 10 9 16 13 14 8 -3 -6 -13
-28 -23 -50 -44 -101 -71 -148 -74 -130 -2 9 0 20 5 24 4 3 13 16 20 28 10 17
10 23 0 26 -8 3 -4 11 11 22 12 9 22 23 22 31 0 14 -2 14 -16 0 -19 -19 -30
-20 -38 -3 -3 6 -4 -9 -1 -35 2 -27 -1 -48 -6 -48 -5 0 -9 12 -9 28 0 15 -3
45 -5 67 -4 27 -3 34 3 20 8 -17 9 -15 15 13 6 28 9 31 29 23 12 -4 24 -13 26
-19z m-3411 -24 c-3 -7 -5 -2 -5 12 0 14 2 19 5 13 2 -7 2 -19 0 -25z m803 17
c7 -9 8 -15 2 -15 -5 0 -12 7 -16 15 -3 8 -4 15 -2 15 2 0 9 -7 16 -15z m2499
-42 c1 -32 7 -86 13 -121 5 -35 7 -66 4 -69 -3 -4 -6 1 -6 10 0 10 -4 17 -8
17 -28 0 -45 153 -20 178 6 6 9 15 5 18 -3 4 -12 0 -20 -7 -8 -8 -33 -25 -55
-39 -44 -27 -52 -49 -26 -74 19 -20 30 -20 38 -1 8 22 36 18 36 -4 0 -11 3
-26 6 -35 4 -11 1 -16 -10 -16 -9 0 -16 -7 -16 -15 0 -8 -7 -15 -15 -15 -8 0
-15 4 -15 9 0 5 -7 12 -16 15 -14 5 -15 4 -4 -9 8 -10 9 -15 1 -15 -6 0 -11
-15 -12 -32 -1 -31 -1 -32 -9 -8 -4 14 -8 40 -9 58 -1 18 -10 41 -21 52 -11
11 -15 20 -9 20 7 0 20 -10 30 -22 15 -16 19 -18 19 -5 0 35 -50 56 -78 32 -7
-6 12 -35 28 -40 14 -4 19 -21 25 -70 7 -65 23 -87 45 -59 7 8 26 14 42 14 25
0 28 -3 23 -21 -5 -14 -3 -19 4 -15 7 5 9 -3 7 -21 -2 -15 -1 -19 1 -9 4 15 7
16 13 5 5 -7 12 -10 16 -7 3 4 -1 15 -10 24 -9 9 -15 19 -12 21 10 10 26 -9
35 -40 9 -31 9 -31 10 -5 1 39 -9 58 -30 58 -20 0 -25 25 -10 48 7 11 9 11 14
-2 3 -8 1 -17 -6 -20 -7 -2 -2 -8 10 -11 16 -5 26 -20 33 -49 6 -22 20 -68 30
-100 23 -70 19 -83 -9 -29 -11 21 -20 33 -21 27 0 -7 7 -25 15 -40 8 -16 15
-46 15 -66 0 -21 5 -38 10 -38 6 0 11 -15 11 -32 2 -32 2 -33 6 -4 3 16 0 33
-6 39 -14 14 -14 64 -1 72 14 9 12 56 -7 157 l-17 88 22 22 22 22 0 -84 c0
-47 5 -143 10 -215 16 -204 13 -392 -6 -476 -17 -77 -51 -152 -103 -229 -39
-57 -39 -46 0 31 54 108 72 182 73 304 1 103 -15 198 -34 210 -19 12 -40 -9
-40 -39 0 -33 -21 -153 -41 -231 -8 -33 -15 -43 -22 -36 -6 6 -15 11 -20 11
-5 0 -1 -7 8 -16 10 -10 13 -24 9 -38 -18 -56 -56 -126 -94 -168 l-41 -47 -35
21 c-25 15 -33 25 -28 37 43 102 45 241 9 799 -4 59 -2 81 6 77 6 -4 8 -19 5
-34 -5 -19 -4 -22 4 -11 5 8 10 11 11 5 1 -14 17 27 18 45 1 13 0 13 -9 0 -8
-12 -11 -11 -16 8 -5 18 -9 20 -20 11 -11 -9 -14 -7 -14 12 1 37 -12 93 -22
100 -5 3 15 16 44 29 29 12 55 26 58 30 3 4 23 17 45 28 22 11 58 34 80 51 22
17 43 31 46 31 3 0 7 -26 8 -57z m-2559 10 c0 -7 -4 -13 -10 -13 -5 0 -10 12
-10 28 0 21 2 24 10 12 5 -8 10 -21 10 -27z m105 -3 c3 -5 2 -10 -4 -10 -5 0
-13 5 -16 10 -3 6 -2 10 4 10 5 0 13 -4 16 -10z m-831 -15 c3 -8 2 -15 -3 -15
-5 0 -14 7 -21 15 -10 12 -10 15 3 15 8 0 17 -7 21 -15z m870 -35 c3 -14 3
-19 0 -12 -3 6 -9 10 -12 8 -4 -2 -7 7 -7 19 0 29 10 20 19 -15z m2376 30 c0
-6 -14 -17 -31 -24 -17 -7 -30 -16 -30 -19 1 -4 -2 -7 -6 -7 -5 0 -8 5 -8 12
0 6 15 16 33 20 17 5 32 13 32 18 0 6 2 10 5 10 3 0 5 -5 5 -10z m-3016 -16
c3 -8 2 -12 -4 -9 -6 3 -10 10 -10 16 0 14 7 11 14 -7z m-269 -18 c-9 -14 -65
-70 -124 -125 -103 -96 -108 -99 -109 -71 -1 27 22 59 34 47 9 -9 -6 -28 -17
-22 -5 4 -9 -1 -9 -10 0 -14 5 -13 29 7 35 27 37 35 14 42 -14 4 -13 4 2 3 27
-2 79 38 70 54 -5 7 -1 9 11 5 14 -4 31 8 63 44 49 55 60 63 36 26z m770 5
c-3 -10 -1 -30 4 -45 6 -14 7 -26 2 -26 -12 0 -23 48 -16 71 4 10 9 19 11 19
3 0 3 -8 -1 -19z m110 9 c-3 -5 -12 -10 -18 -10 -7 0 -6 4 3 10 19 12 23 12
15 0z m-655 -20 c12 -12 25 -18 30 -15 6 4 10 1 10 -4 0 -6 5 -11 11 -11 6 0
8 7 5 16 -6 14 -4 15 9 4 15 -12 15 -14 1 -22 -17 -9 -96 27 -96 44 0 13 9 9
30 -12z m-260 0 c0 -5 -5 -10 -11 -10 -5 0 -7 5 -4 10 3 6 8 10 11 10 2 0 4
-4 4 -10z m-35 -31 c-8 -12 -35 -12 -35 0 0 11 22 20 33 14 4 -2 5 -9 2 -14z
m142 1 c-1 -14 -6 -18 -19 -14 -20 6 -25 -12 -5 -19 6 -3 2 -4 -10 -4 -28 2
-28 5 -1 34 26 28 37 29 35 3z m69 -28 c-6 -5 -56 21 -56 29 0 5 13 0 29 -9
16 -9 28 -18 27 -20z m776 16 c-7 -7 -12 -8 -12 -2 0 6 3 14 7 17 3 4 9 5 12
2 2 -3 -1 -11 -7 -17z m147 -10 c23 -12 41 -25 41 -30 0 -8 -67 26 -84 43 -16
15 0 10 43 -13z m-110 -78 c0 -8 -6 -4 -14 10 -8 14 -14 36 -14 50 0 22 2 21
14 -10 7 -19 14 -42 14 -50z m-839 65 c0 -7 -30 -13 -34 -7 -3 4 4 9 15 9 10
1 19 0 19 -2z m103 -26 c-10 -4 -27 -8 -38 -8 -11 1 -14 3 -7 6 10 4 8 8 -5
18 -15 11 -11 12 25 2 33 -9 39 -13 25 -18z m837 10 c0 -5 -7 -9 -15 -9 -8 0
-15 7 -15 15 0 9 6 12 15 9 8 -4 15 -10 15 -15z m1975 -94 c4 -41 2 -54 -4
-40 -6 12 -10 15 -10 6 -1 -8 6 -22 14 -31 22 -24 34 -469 16 -562 -14 -68
-45 -157 -71 -200 l-16 -28 -42 57 c-60 82 -53 133 18 133 12 0 19 4 16 9 -3
5 7 13 22 19 82 29 83 100 3 202 -20 24 -35 48 -34 52 2 4 -4 5 -12 2 -8 -4
-15 -1 -15 6 0 13 -54 94 -82 122 -12 12 -33 18 -66 18 -44 0 -50 3 -85 44
-42 51 -44 56 -19 56 15 0 15 -2 2 -11 -12 -8 -10 -10 9 -5 14 3 30 1 37 -5 8
-6 14 -6 18 0 7 11 -3 41 -14 41 -5 0 -7 9 -5 20 3 16 -2 20 -24 20 -16 0 -34
-6 -40 -14 -23 -27 -116 0 -104 31 3 7 0 13 -6 13 -6 0 -11 -4 -11 -10 0 -5
-13 -1 -30 8 -25 14 -27 18 -12 24 46 18 106 -8 82 -37 -8 -9 -7 -14 2 -17 22
-8 68 -2 66 8 -2 5 -5 8 -8 8 -3 -1 -15 -5 -27 -9 -13 -3 -23 -2 -23 4 0 14
38 24 68 17 21 -5 24 -4 12 5 -12 8 -8 9 15 3 17 -4 41 -7 55 -6 50 3 110 -9
110 -23 0 -16 22 -25 61 -25 16 0 29 -4 29 -10 0 -21 18 -8 34 23 10 21 13 47
10 69 l-6 36 -72 4 c-39 3 -75 2 -81 -2 -5 -3 -32 -7 -60 -8 -47 -1 -44 0 40
22 50 13 119 35 155 48 l65 23 7 -25 c4 -13 10 -52 13 -85z m-3171 90 c-4 -8
-11 -15 -16 -15 -6 0 -5 6 2 15 7 8 14 15 16 15 2 0 1 -7 -2 -15z m132 -11
c-9 -9 -20 -14 -23 -10 -4 3 2 13 13 20 25 18 31 12 10 -10z m795 0 c5 -15 8
-29 5 -31 -2 -2 -8 10 -14 26 -13 38 -5 41 9 5z m-646 -4 c-3 -5 -13 -10 -21
-10 -8 0 -12 5 -9 10 3 6 13 10 21 10 8 0 12 -4 9 -10z m176 -6 c63 -10 123
-78 88 -100 -8 -4 -9 0 -4 15 4 12 2 21 -4 21 -6 0 -11 -7 -11 -15 0 -8 -4
-15 -10 -15 -13 0 -13 23 1 37 8 8 8 13 0 17 -6 4 -11 0 -11 -8 0 -9 -5 -16
-10 -16 -6 0 -8 11 -6 25 3 16 0 25 -8 25 -8 0 -12 -10 -11 -22 1 -13 0 -15
-2 -6 -3 14 -9 15 -29 8 -19 -7 -32 -6 -52 5 -23 13 -23 15 -4 10 13 -4 22 -2
22 5 0 8 -16 10 -52 6 l-53 -5 45 13 c25 8 51 12 58 10 8 -2 32 -7 53 -10z
m769 -4 c9 -16 8 -18 -5 -14 -18 7 -20 -7 -4 -23 15 -15 2 -34 -18 -26 -15 6
-14 7 3 14 15 6 16 8 3 8 -9 1 -20 8 -23 17 -9 23 -7 36 3 29 5 -3 12 -1 16 5
9 14 13 13 25 -10z m111 2 l55 -17 -50 -33 c-43 -28 -47 -30 -28 -9 22 23 22
26 5 30 -16 5 -16 6 2 5 41 -1 39 4 -10 22 -64 24 -47 25 26 2z m-1223 -20 c2
-7 -2 -10 -12 -6 -9 3 -16 11 -16 16 0 13 23 5 28 -10z m840 -14 c-2 -20 2
-33 11 -36 10 -3 12 0 8 11 -4 11 -2 14 9 10 16 -6 18 -19 4 -28 -6 -3 -5 -15
2 -31 8 -18 14 -21 19 -12 7 11 12 11 29 0 12 -7 31 -11 43 -8 12 3 16 3 10 0
-7 -3 -13 -14 -13 -25 0 -10 -4 -19 -9 -19 -5 0 -12 -7 -15 -16 -4 -10 -2 -13
7 -8 26 15 46 37 41 45 -3 5 0 9 6 9 7 0 10 -7 6 -15 -4 -12 4 -15 38 -15 30
0 46 5 50 15 3 8 11 15 17 15 7 0 3 -11 -10 -24 -15 -16 -29 -22 -46 -18 -32
6 -70 -4 -89 -24 -9 -8 -20 -13 -26 -9 -11 7 -80 109 -80 119 0 4 -7 14 -16
23 -8 9 -13 22 -10 30 3 8 6 21 6 29 0 8 3 14 6 14 3 0 4 -14 2 -32z m112 -3
c0 -5 -5 -3 -10 5 -5 8 -10 20 -10 25 0 6 5 3 10 -5 5 -8 10 -19 10 -25z
m2380 25 c0 -5 -4 -10 -10 -10 -5 0 -10 5 -10 10 0 6 5 10 10 10 6 0 10 -4 10
-10z m-3212 -9 c11 -7 10 -10 -3 -15 -20 -7 -38 1 -30 15 7 11 16 11 33 0z
m796 -7 c3 -8 2 -12 -4 -9 -6 3 -10 10 -10 16 0 14 7 11 14 -7z m-964 -20
c-11 -12 -11 -17 -1 -23 9 -6 10 -20 5 -46 l-7 -37 82 7 c68 6 81 5 81 -8 0
-11 -19 -16 -76 -22 -41 -4 -78 -4 -82 -1 -3 4 -7 26 -8 49 -3 56 -3 57 -11
57 -5 0 -9 -25 -9 -55 -1 -30 2 -55 7 -55 5 0 9 -5 9 -11 0 -5 -8 -9 -17 -8
-37 3 -52 -2 -56 -18 -4 -17 -5 -17 -6 0 0 9 8 25 19 34 11 10 20 25 20 35 0
9 5 20 10 23 6 3 10 14 10 23 0 32 -31 -13 -61 -88 -32 -80 -35 -94 -14 -66
13 17 15 18 15 3 0 -9 -4 -17 -10 -17 -5 0 -7 -7 -4 -15 4 -8 1 -15 -6 -15 -6
0 -10 -12 -9 -27 4 -52 -1 -123 -9 -123 -4 0 -6 20 -4 45 3 28 0 45 -7 45 -7
0 -11 -25 -11 -66 0 -61 1 -65 20 -59 12 4 20 2 20 -5 0 -6 -5 -8 -12 -4 -8 5
-10 -9 -5 -52 l6 -59 -15 40 c-46 122 -20 294 69 452 20 35 69 94 75 89 3 -3
-1 -13 -8 -22z m267 20 c-3 -3 -12 -4 -19 -1 -8 3 -5 6 6 6 11 1 17 -2 13 -5z
m-198 -46 c-11 -25 -12 -25 -30 -7 -23 23 -24 39 -4 39 8 0 15 -4 15 -10 0 -5
5 -10 11 -10 6 0 8 7 4 18 -4 12 -3 14 5 6 8 -8 8 -18 -1 -36z m1151 32 c-8
-5 -19 -10 -25 -10 -5 0 -3 5 5 10 8 5 20 10 25 10 6 0 3 -5 -5 -10z m-1032
-12 c-6 -18 -28 -21 -28 -4 0 9 7 16 16 16 9 0 14 -5 12 -12z m882 -10 c29
-32 15 -36 -16 -5 -15 15 -22 27 -16 27 6 0 20 -10 32 -22z m1708 6 c36 -10
25 -23 -15 -19 -35 4 -36 4 -8 -4 17 -5 53 -10 80 -11 l50 -3 -45 -6 c-27 -4
-61 -1 -84 6 -21 7 -53 12 -70 12 l-31 -1 30 -8 c29 -7 29 -8 4 -9 -14 0 -34
6 -45 14 -18 14 -17 14 16 16 19 0 46 5 60 9 33 11 32 11 58 4z m92 -14 c-20
-13 -50 -13 -50 0 0 6 15 10 33 10 24 0 28 -3 17 -10z m-2453 -22 c-3 -8 -6
-5 -6 6 -1 11 2 17 5 13 3 -3 4 -12 1 -19z m709 10 c5 -7 3 -8 -6 -3 -10 6
-12 4 -7 -8 3 -10 2 -17 -4 -17 -6 0 -7 -4 -4 -10 3 -6 -1 -7 -9 -4 -14 5 -13
9 1 30 18 27 19 28 29 12z m94 0 c0 -14 -15 -16 -27 -3 -10 11 -9 13 7 12 11
-1 20 -5 20 -9z m-270 -8 c0 -5 -4 -10 -10 -10 -5 0 -10 5 -10 10 0 6 5 10 10
10 6 0 10 -4 10 -10z m-710 -15 c0 -8 -7 -15 -15 -15 -16 0 -20 12 -8 23 11
12 23 8 23 -8z m342 -28 c68 -43 202 -108 298 -143 41 -15 76 -28 77 -29 2 -1
-29 -33 -67 -72 -39 -38 -72 -67 -75 -65 -3 3 1 12 8 21 11 14 10 14 -5 2 -19
-14 -24 -41 -9 -41 9 0 7 -57 -4 -105 -3 -11 -2 -15 1 -8 4 9 14 8 40 -4 25
-12 31 -19 22 -26 -9 -6 -8 -7 5 -3 9 3 50 -10 90 -28 40 -18 97 -41 126 -51
67 -22 83 -51 57 -99 -14 -26 -30 -37 -84 -55 -60 -21 -156 -65 -223 -102 -13
-8 -48 -34 -78 -58 -41 -35 -57 -42 -69 -34 -27 17 -62 90 -84 176 -18 70 -20
103 -16 229 4 112 2 151 -8 159 -8 7 -14 7 -19 -1 -11 -18 -45 -143 -45 -167
0 -12 -7 -28 -15 -36 -8 -9 -11 -17 -7 -19 10 -4 2 -158 -8 -158 -31 0 -44
101 -42 310 1 131 6 182 23 245 11 44 21 85 21 92 1 7 6 9 11 6 6 -4 8 0 4 10
-3 9 0 29 8 43 8 15 12 31 9 36 -9 15 5 8 58 -25z m479 26 c-11 -5 -11 -7 0
-15 12 -8 12 -9 0 -6 -22 6 -25 28 -4 27 12 0 14 -2 4 -6z m123 -8 c-4 -8 -10
-15 -15 -15 -4 0 -6 7 -3 15 4 8 10 15 15 15 4 0 6 -7 3 -15z m1250 -25 c38
-71 -12 -170 -87 -170 -63 0 -127 60 -127 122 0 73 21 87 135 84 58 -1 61 -2
79 -36z m-1964 16 c0 -7 -11 -50 -25 -95 -33 -111 -55 -258 -62 -423 -5 -113
-8 -135 -20 -131 -12 5 -12 7 -1 15 10 8 9 9 -4 4 -25 -8 -115 34 -97 45 10 6
8 8 -8 6 -12 0 -19 -5 -17 -9 3 -4 -12 -1 -33 6 -21 7 -87 21 -148 31 -60 9
-112 19 -114 21 -2 2 22 3 55 2 32 -2 62 -6 65 -11 8 -12 39 3 39 19 0 8 5 14
11 14 15 0 2 18 -23 31 -12 7 -18 7 -14 1 3 -6 0 -13 -6 -15 -7 -3 -4 -6 7 -7
l20 -1 -20 -9 c-11 -5 -33 -8 -50 -8 l-30 0 30 8 c25 6 20 8 -30 10 -33 1 -51
4 -40 7 11 2 30 6 43 9 14 3 22 12 22 24 0 12 7 20 16 20 9 0 18 9 21 20 4 15
11 19 29 15 13 -3 35 -7 48 -10 14 -3 28 -17 36 -35 14 -34 40 -40 40 -10 0
11 7 23 15 26 9 4 15 19 15 35 0 17 8 41 17 55 l16 26 -54 -3 c-74 -3 -79 -6
-79 -45 0 -24 -5 -34 -15 -34 -11 0 -15 11 -15 40 0 36 -2 40 -25 40 -22 0
-25 4 -25 40 0 22 5 40 10 40 6 0 10 -7 10 -15 0 -11 11 -15 40 -15 29 0 40 4
40 15 0 8 7 15 15 15 11 0 15 11 15 40 l0 40 -40 0 c-40 0 -40 0 -40 39 0 29
-5 41 -17 45 -10 2 23 2 73 -1 88 -5 92 -5 117 21 19 19 37 26 64 26 46 0 83
9 83 21 0 5 -7 6 -15 3 -8 -4 -15 -2 -15 3 0 5 16 9 35 10 21 0 35 -4 35 -11z
m1702 -46 c3 -37 11 -66 21 -78 16 -18 16 -20 -4 -38 -14 -13 -36 -19 -66 -19
-39 0 -49 5 -78 37 -35 38 -52 91 -41 133 6 24 9 25 85 25 l79 0 4 -60z
m-1052 14 c0 -2 -9 -4 -20 -4 -11 0 -20 4 -20 9 0 5 9 7 20 4 11 -3 20 -7 20
-9z m1610 -28 c-23 -21 -27 -22 -43 -8 -9 8 -15 18 -12 21 4 3 10 -1 16 -9 8
-13 11 -13 20 3 5 9 18 17 27 17 13 0 12 -5 -8 -24z m-2923 -109 c-13 -101 1
-224 33 -311 11 -28 20 -54 20 -57 0 -4 -20 -7 -44 -7 -106 -2 -163 123 -121
266 13 44 112 209 120 200 2 -2 -2 -42 -8 -91z m1374 34 c128 -60 382 -136
521 -156 41 -6 47 -10 45 -29 -2 -20 2 -21 76 -19 42 1 77 -1 77 -5 0 -4 -21
-37 -46 -74 -27 -38 -43 -71 -39 -78 5 -8 24 -10 59 -6 l52 7 12 -73 c7 -40
15 -84 19 -97 l6 -24 -99 7 c-384 27 -685 101 -944 231 -66 33 -70 37 -70 69
0 36 24 73 80 121 19 16 44 39 56 51 20 19 25 20 55 7 48 -20 56 -1 15 35 -34
30 -44 51 -29 65 16 17 77 4 154 -32z m-1267 -55 c-3 -15 -8 -25 -11 -23 -2 3
-1 17 3 31 3 15 8 25 11 23 2 -3 1 -17 -3 -31z m2096 26 c0 -5 18 -19 41 -31
32 -18 51 -22 90 -19 55 6 67 -5 95 -84 19 -53 12 -77 -21 -70 -25 4 -25 3
-25 -64 0 -79 -10 -104 -30 -79 -23 28 -48 17 -85 -37 -38 -58 -71 -98 -78
-98 -6 0 -26 73 -35 130 -6 38 -11 46 -32 48 -42 6 -43 18 -10 80 32 61 33 82
2 82 -9 0 -25 6 -34 13 -19 15 -16 20 36 96 22 32 35 41 57 41 16 0 29 -4 29
-8z m524 -19 c24 -16 54 -41 66 -56 21 -27 21 -29 5 -41 -17 -12 -17 -15 7
-58 l24 -44 -36 -16 c-35 -15 -37 -18 -44 -74 -10 -93 -17 -97 -75 -40 -29 29
-55 47 -64 43 -7 -3 -22 -22 -32 -43 l-18 -39 -19 55 c-25 74 -47 207 -41 248
5 31 7 32 50 32 36 0 49 5 71 29 35 37 52 37 106 4z m333 -29 c12 -3 39 -31
60 -63 21 -31 57 -77 80 -103 50 -54 78 -109 70 -132 -16 -41 -173 -99 -409
-150 -42 -9 -55 13 -63 111 -7 90 -6 110 7 106 4 -2 32 -6 63 -9 69 -8 70 -1
10 76 -25 32 -45 61 -45 64 0 3 20 6 44 6 51 0 65 13 42 39 -16 17 -13 19 36
39 58 23 72 25 105 16z m-2952 -102 c0 -68 -3 -86 -14 -84 -10 2 -12 -4 -7
-25 5 -23 4 -25 -5 -10 -12 21 -4 51 11 42 7 -4 8 17 4 64 -6 59 -2 101 8 101
2 0 3 -39 3 -88z m2400 -203 c25 -49 50 -87 55 -84 6 4 20 26 33 51 l22 44 84
-84 83 -83 -43 -7 c-103 -15 -351 -27 -427 -20 -71 5 -82 9 -77 23 9 23 75
141 80 141 2 0 27 -29 55 -65 28 -36 56 -65 62 -65 11 0 8 62 -8 204 -7 58 -7
58 15 47 11 -7 42 -52 66 -102z m-2398 59 c-3 -7 -5 -2 -5 12 0 14 2 19 5 13
2 -7 2 -19 0 -25z m3531 -164 c-16 -95 -84 -266 -122 -311 l-21 -23 -33 20
-32 20 47 59 c60 74 107 198 144 376 l13 60 10 -55 c7 -41 6 -77 -6 -146z
m-3549 139 c-3 -19 2 -33 11 -33 5 0 7 8 4 18 -4 11 -3 13 3 5 4 -6 24 -13 43
-16 l35 -4 -37 -1 c-21 -1 -38 -6 -38 -12 0 -17 -14 -11 -28 10 -7 12 -10 25
-7 30 7 12 15 13 14 3z m674 -241 c7 -40 10 -75 5 -78 -14 -9 -48 60 -48 97 0
20 3 65 7 100 l7 64 8 -55 c5 -30 14 -88 21 -128z m-463 129 c80 -16 132 -34
215 -75 201 -99 335 -230 537 -526 104 -151 101 -144 106 -317 2 -84 2 -160
-2 -169 -5 -12 -16 -1 -48 47 -22 35 -72 94 -109 131 -72 71 -230 194 -312
241 -95 56 -63 20 75 -83 226 -169 331 -284 364 -398 9 -30 25 -63 36 -74 11
-11 18 -21 16 -22 -1 -1 -28 -8 -60 -15 -77 -16 -199 -77 -283 -141 -85 -64
-80 -59 -72 -66 3 -4 50 22 104 57 118 76 191 107 274 116 l62 6 -60 -74 c-68
-84 -129 -181 -139 -221 -10 -45 11 -32 41 25 44 80 84 137 144 200 51 54 55
56 73 40 16 -14 95 -26 207 -32 11 -1 12 -18 6 -87 -5 -59 -4 -84 3 -80 14 8
35 112 29 137 -5 20 9 25 32 10 19 -12 70 9 129 50 l43 31 27 -23 c76 -66 128
-119 163 -166 36 -49 39 -57 39 -120 0 -109 -53 -259 -94 -268 -68 -15 -467
-68 -716 -95 -371 -39 -513 -45 -1100 -45 l-575 0 -90 43 c-308 149 -511 378
-621 701 l-36 105 4 140 c4 125 9 152 37 238 57 166 162 321 325 475 116 110
171 145 341 214 238 96 368 120 625 114 105 -2 189 -10 260 -24z m314 -90
c-11 -14 -18 16 -15 61 l5 53 6 -55 c4 -30 6 -57 4 -59z m2721 -3 c-3 -35 -13
-84 -22 -110 -15 -43 -18 -45 -40 -35 -13 6 -22 13 -21 16 2 3 15 29 29 56 15
28 32 69 39 93 7 23 15 42 18 42 2 0 1 -28 -3 -62z m-543 -95 c128 -211 267
-594 285 -785 l6 -68 36 5 c20 3 92 12 161 20 156 19 424 62 470 77 19 5 83
37 142 69 140 78 163 78 216 7 21 -29 59 -84 84 -123 25 -38 70 -98 101 -133
31 -34 64 -76 73 -93 14 -27 14 -33 0 -53 -18 -28 -38 -36 -191 -80 -531 -151
-1047 -211 -1744 -204 l-304 3 -18 65 -18 65 47 48 c54 55 79 59 130 20 48
-36 116 -38 143 -4 10 13 19 35 19 50 0 37 -40 117 -89 178 -22 29 -41 55 -41
58 0 3 35 5 79 5 73 0 79 2 85 23 3 12 6 95 6 184 0 238 -33 459 -94 629 -14
39 -26 77 -26 83 0 7 34 11 103 12 56 1 131 5 167 9 131 14 120 19 172 -67z
m761 -168 c-3 -9 -8 -14 -10 -11 -3 3 -2 9 2 15 9 16 15 13 8 -4z m-1688 -176
c73 -14 172 -46 234 -77 48 -24 59 -35 95 -102 39 -73 41 -79 45 -184 l3 -110
-28 19 c-59 39 -114 66 -185 93 -69 25 -84 27 -234 27 -165 -1 -216 -9 -343
-55 -60 -23 -159 -71 -214 -106 -21 -13 -39 -24 -42 -24 -2 0 -6 62 -8 138 -4
101 -10 149 -24 184 -22 57 -24 54 97 117 83 44 195 78 298 91 73 9 228 4 306
-11z m-29 -380 c16 -17 42 -38 58 -46 l30 -15 -25 -14 c-34 -19 -67 -17 -119
7 -50 23 -110 66 -110 79 0 9 36 15 101 18 28 2 42 -5 65 -29z m162 0 c46 -13
53 -24 21 -34 -35 -11 -104 4 -140 32 l-34 25 56 -5 c31 -3 74 -11 97 -18z
m-342 -20 c16 -17 42 -38 59 -46 l30 -16 -25 -9 c-39 -14 -88 0 -131 39 -54
49 -53 50 27 62 5 0 23 -13 40 -30z m-97 -40 l33 -39 -28 0 c-31 0 -114 37
-114 50 0 13 32 29 55 29 11 0 35 -18 54 -40z m597 -8 c56 -32 139 -117 198
-203 43 -63 60 -143 35 -159 -26 -16 -73 -9 -110 17 -59 41 -100 37 -151 -14
l-41 -42 -88 0 -87 0 -79 63 c-136 107 -212 182 -219 214 -6 29 -4 31 43 47
26 9 83 19 125 23 95 7 141 -8 245 -80 40 -28 75 -48 78 -45 10 10 -88 89
-144 118 l-55 27 28 18 c15 10 44 20 64 22 19 2 43 8 51 13 27 16 54 11 107
-19z m-727 -5 c6 -8 34 -24 62 -35 41 -18 50 -26 47 -44 -4 -31 -17 -38 -58
-31 -58 10 -95 57 -83 103 6 24 16 27 32 7z m-59 -38 c0 -68 -9 -80 -54 -77
-63 3 -88 0 -81 -10 3 -5 30 -13 60 -16 30 -4 58 -12 63 -19 5 -6 20 -40 32
-76 13 -36 29 -70 37 -76 7 -6 13 -13 13 -15 0 -3 -33 -3 -72 -1 l-73 4 -57
55 c-55 55 -56 57 -52 102 3 25 7 51 9 58 4 11 152 102 168 103 4 0 7 -15 7
-32z m222 -30 c-7 -7 -12 -23 -12 -37 -1 -21 -2 -23 -10 -10 -13 21 -1 59 18
59 12 0 13 -3 4 -12z m-150 -67 c4 -3 1 -26 -6 -51 l-14 -45 -12 30 c-6 17
-14 43 -17 59 -6 26 -4 28 18 21 13 -4 27 -10 31 -14z m144 -32 c10 -12 29
-25 41 -30 13 -5 32 -23 43 -41 18 -30 18 -33 2 -51 -25 -28 -89 -67 -110 -67
-10 0 -39 13 -65 30 -52 33 -57 50 -35 122 17 58 86 79 124 37z m1479 -469
c-5 -34 -13 -54 -25 -60 -34 -18 -219 -6 -239 16 -5 5 -11 25 -15 45 l-6 37
142 8 c79 5 145 8 147 7 1 -1 0 -25 -4 -53z m-92 -85 c73 0 91 -5 66 -20 -5
-4 -54 -7 -106 -6 -84 0 -99 3 -117 21 l-21 20 50 -7 c28 -5 85 -8 128 -8z"/>
<path d="M3765 6894 c-16 -12 -17 -16 -6 -23 11 -7 10 -18 -4 -67 -18 -65 -82
-252 -91 -266 -4 -6 -28 23 -55 63 -52 79 -54 78 -63 -15 -4 -33 -8 -61 -9
-62 -1 -1 -21 -4 -45 -7 -64 -7 -63 -17 1 -17 62 0 65 3 69 78 1 23 6 41 11
39 19 -6 80 -119 98 -179 12 -45 18 -55 18 -34 1 16 -4 45 -10 65 -10 32 -6
48 30 143 49 131 83 252 79 278 -3 17 -5 17 -23 4z"/>
<path d="M2046 6623 c-10 -10 -7 -35 4 -28 14 8 46 -65 65 -149 l15 -66 -38
-53 c-52 -71 -85 -127 -75 -127 4 1 38 45 76 98 37 53 76 108 88 122 17 21 20
22 15 5 -3 -11 -7 -42 -10 -70 l-6 -50 14 40 c7 22 16 65 20 95 5 45 4 52 -6
39 -7 -8 -25 -30 -39 -48 l-26 -33 -17 67 c-16 66 -51 151 -66 160 -4 2 -10 2
-14 -2z"/>
<path d="M2985 6245 c-97 -22 -224 -72 -292 -116 -72 -47 -91 -72 -72 -95 9
-11 50 -14 214 -14 212 0 268 5 262 24 -2 6 -45 25 -95 41 -51 17 -92 32 -91
35 0 3 45 26 100 52 77 37 99 52 99 68 0 24 -32 25 -125 5z"/>
<path d="M1881 5860 c-125 -44 -161 -89 -60 -75 27 4 49 5 49 2 0 -3 -9 -26
-20 -52 -21 -49 -26 -95 -11 -95 5 0 31 26 57 58 27 31 70 83 96 114 26 31 48
61 48 67 0 19 -73 11 -159 -19z"/>
<path d="M2238 5792 c-100 -66 -218 -362 -182 -456 10 -26 39 -19 111 28 130
83 233 116 367 116 81 0 86 1 86 21 0 50 -94 144 -225 227 -28 17 -59 40 -71
50 -31 30 -56 34 -86 14z m61 -49 c16 -14 22 -34 27 -90 4 -43 11 -73 18 -73
6 0 24 18 39 40 25 36 30 39 44 25 8 -9 27 -22 41 -29 15 -8 43 -30 61 -50
l35 -36 -70 0 c-94 0 -167 -20 -283 -80 -54 -28 -103 -50 -110 -50 -9 0 -11
10 -6 33 10 45 36 127 42 127 2 0 18 -7 34 -16 17 -8 33 -13 36 -10 3 3 1 31
-6 62 -15 77 -15 75 19 122 33 46 47 51 79 25z m75 -52 c16 -18 16 -20 -2 -50
l-19 -32 -7 38 c-11 69 -4 80 28 44z m-189 -98 c7 -36 0 -40 -28 -19 -15 12
-16 18 -6 40 14 31 24 24 34 -21z"/>
<path d="M5326 5690 c-32 -10 -98 -54 -134 -89 -68 -68 -127 -200 -139 -311
-6 -59 -6 -60 33 -95 93 -85 268 -142 399 -131 138 12 205 48 246 133 17 36
20 58 18 126 -3 69 -10 94 -40 157 -66 139 -176 221 -294 219 -33 0 -73 -5
-89 -9z m191 -46 c29 -14 68 -43 88 -66 50 -55 105 -173 112 -241 6 -54 5 -55
-37 -93 -50 -46 -58 -49 -159 -70 -177 -37 -338 25 -370 143 -14 50 -18 134
-7 151 4 7 5 16 2 19 -9 9 56 93 99 128 51 42 86 53 161 54 46 1 72 -5 111
-25z m-222 -527 c16 -5 15 -5 -4 -4 -14 1 -26 9 -28 17 -3 10 -2 11 4 4 4 -7
17 -14 28 -17z m52 -13 c-3 -3 -12 -4 -19 -1 -8 3 -5 6 6 6 11 1 17 -2 13 -5z
m96 -11 c-7 -2 -19 -2 -25 0 -7 3 -2 5 12 5 14 0 19 -2 13 -5z"/>
<path d="M4423 3473 c-13 -2 -23 -10 -23 -18 0 -11 8 -11 36 -3 20 5 47 7 60
4 27 -7 33 8 8 18 -17 6 -45 6 -81 -1z"/>
<path d="M3563 4023 c-15 -3 -23 -12 -23 -24 0 -28 18 -59 34 -59 21 0 48 37
44 62 -3 24 -17 29 -55 21z m47 -27 c0 -7 -6 -21 -14 -31 -12 -16 -16 -17 -30
-6 -24 20 -20 49 7 53 27 5 37 1 37 -16z"/>
<path d="M4903 4030 c-13 -5 -23 -15 -23 -22 0 -21 30 -58 46 -58 21 0 37 47
24 71 -12 21 -15 22 -47 9z m37 -29 c0 -38 -13 -46 -35 -21 -18 20 -18 21 1
35 28 21 34 18 34 -14z"/>
<path d="M2830 3935 c-7 -9 -11 -18 -8 -20 3 -3 11 1 18 10 7 9 11 18 8 20 -3
3 -11 -1 -18 -10z"/>
<path d="M2786 3823 c-6 -14 -5 -15 5 -6 7 7 10 15 7 18 -3 3 -9 -2 -12 -12z"/>
<path d="M2675 3750 c-3 -5 -1 -10 4 -10 6 0 11 5 11 10 0 6 -2 10 -4 10 -3 0
-8 -4 -11 -10z"/>
<path d="M2603 3573 c-8 -3 -12 -20 -12 -41 2 -34 2 -35 6 -7 3 17 9 36 15 43
11 13 10 13 -9 5z"/>
<path d="M2611 3510 c0 -8 4 -22 9 -30 12 -18 12 -2 0 25 -6 13 -9 15 -9 5z"/>
<path d="M2807 3187 c-3 -8 1 -14 8 -14 7 0 11 6 8 14 -3 7 -6 13 -8 13 -2 0
-5 -6 -8 -13z"/>
<path d="M1680 3008 c0 -6 -8 -21 -19 -32 -10 -12 -25 -42 -34 -68 -14 -42
-14 -47 0 -52 12 -5 14 -1 10 14 -3 11 -1 20 5 20 5 0 8 8 7 18 -2 9 7 33 19
52 21 33 28 60 17 60 -3 0 -5 -5 -5 -12z"/>
<path d="M5380 3404 c0 -27 5 -56 10 -64 7 -10 8 4 4 45 -8 75 -14 83 -14 19z"/>
<path d="M5165 3361 c-3 -5 -1 -12 4 -15 5 -3 7 -16 4 -28 -4 -13 0 -26 11
-34 10 -7 15 -18 11 -24 -6 -9 -10 -9 -17 1 -8 11 -9 11 -6 1 2 -8 7 -13 11
-13 4 1 16 1 27 1 17 0 20 7 20 40 0 22 -4 40 -8 40 -5 0 -17 7 -28 16 -10 8
-13 12 -5 8 9 -5 12 -3 7 4 -9 14 -23 15 -31 3z m35 -47 c0 -8 -4 -12 -10 -9
-5 3 -10 10 -10 16 0 5 5 9 10 9 6 0 10 -7 10 -16z"/>
<path d="M5152 3295 c0 -16 2 -22 5 -12 2 9 2 23 0 30 -3 6 -5 -1 -5 -18z"/>
<path d="M5482 3230 c0 -14 2 -19 5 -12 2 6 2 18 0 25 -3 6 -5 1 -5 -13z"/>
<path d="M5192 3115 c0 -16 2 -22 5 -12 2 9 2 23 0 30 -3 6 -5 -1 -5 -18z"/>
<path d="M5171 3104 c0 -11 3 -14 6 -6 3 7 2 16 -1 19 -3 4 -6 -2 -5 -13z"/>
<path d="M5381 3104 c0 -11 3 -14 6 -6 3 7 2 16 -1 19 -3 4 -6 -2 -5 -13z"/>
<path d="M5411 3104 c0 -11 3 -14 6 -6 3 7 2 16 -1 19 -3 4 -6 -2 -5 -13z"/>
<path d="M5241 3018 c-1 -15 4 -30 9 -33 6 -3 10 -1 10 5 0 6 5 8 10 5 6 -4
10 5 10 21 0 22 -3 24 -14 15 -11 -9 -15 -9 -19 1 -3 7 -6 1 -6 -14z"/>
<path d="M5440 2993 c0 -5 5 -15 10 -23 8 -12 10 -11 10 8 0 12 -4 22 -10 22
-5 0 -10 -3 -10 -7z"/>
<path d="M5441 2894 c0 -11 3 -14 6 -6 3 7 2 16 -1 19 -3 4 -6 -2 -5 -13z"/>
<path d="M5460 2878 c0 -13 5 -30 10 -38 7 -11 10 -5 10 23 0 20 -4 37 -10 37
-5 0 -10 -10 -10 -22z"/>
<path d="M5191 2864 c0 -11 3 -14 6 -6 3 7 2 16 -1 19 -3 4 -6 -2 -5 -13z"/>
<path d="M5410 2855 c-14 -16 -10 -18 14 -9 9 3 16 10 16 15 0 14 -16 11 -30
-6z"/>
<path d="M5370 2840 c-13 -8 -12 -10 3 -10 12 0 17 -8 17 -30 0 -16 -4 -30
-10 -30 -5 0 -10 5 -10 12 0 6 -2 9 -5 6 -3 -3 -3 -12 1 -21 10 -26 34 -7 34
27 0 41 -11 58 -30 46z"/>
<path d="M5500 2796 c0 -11 -4 -14 -12 -10 -8 5 -9 2 -5 -10 4 -10 7 -25 8
-34 1 -9 5 1 10 22 5 21 7 41 4 44 -3 3 -5 -2 -5 -12z"/>
<path d="M5370 2724 c0 -8 5 -12 10 -9 6 4 8 11 5 16 -9 14 -15 11 -15 -7z"/>
<path d="M5192 2700 c0 -19 2 -27 5 -17 2 9 2 25 0 35 -3 9 -5 1 -5 -18z"/>
<path d="M5220 2695 c0 -8 4 -15 10 -15 5 0 7 7 4 15 -4 8 -8 15 -10 15 -2 0
-4 -7 -4 -15z"/>
<path d="M5502 2680 c0 -19 2 -27 5 -17 2 9 2 25 0 35 -3 9 -5 1 -5 -18z"/>
<path d="M5361 2644 c0 -11 3 -14 6 -6 3 7 2 16 -1 19 -3 4 -6 -2 -5 -13z"/>
<path d="M5200 2629 c0 -5 5 -7 10 -4 6 3 10 8 10 11 0 2 -4 4 -10 4 -5 0 -10
-5 -10 -11z"/>
<path d="M5340 2580 c0 -5 5 -10 10 -10 6 0 10 5 10 10 0 6 -4 10 -10 10 -5 0
-10 -4 -10 -10z"/>
<path d="M5215 2350 c3 -5 8 -10 11 -10 2 0 4 5 4 10 0 6 -5 10 -11 10 -5 0
-7 -4 -4 -10z"/>
<path d="M5072 3295 c0 -16 2 -22 5 -12 2 9 2 23 0 30 -3 6 -5 -1 -5 -18z"/>
<path d="M5000 3290 c-13 -9 -13 -10 0 -9 8 1 26 5 40 9 l25 8 -25 1 c-14 0
-32 -4 -40 -9z"/>
<path d="M4935 3270 c-13 -5 -14 -9 -5 -9 8 0 24 4 35 9 13 5 14 9 5 9 -8 0
-24 -4 -35 -9z"/>
<path d="M5041 3268 c9 -7 14 -20 12 -28 -3 -9 -1 -11 4 -5 4 6 12 13 16 16 4
3 -5 11 -20 18 -23 9 -25 9 -12 -1z"/>
<path d="M4998 3263 c7 -3 16 -2 19 1 4 3 -2 6 -13 5 -11 0 -14 -3 -6 -6z"/>
<path d="M5064 3199 c-3 -6 -1 -16 5 -22 8 -8 11 -5 11 11 0 24 -5 28 -16 11z"/>
<path d="M4588 3193 c7 -3 16 -2 19 1 4 3 -2 6 -13 5 -11 0 -14 -3 -6 -6z"/>
<path d="M5068 3145 c-8 -8 24 -75 33 -69 5 3 3 17 -3 32 -15 34 -23 44 -30
37z"/>
<path d="M5041 3110 c0 -8 4 -22 9 -30 12 -18 12 -2 0 25 -6 13 -9 15 -9 5z"/>
<path d="M4880 3100 c0 -5 9 -10 20 -10 11 0 20 5 20 10 0 6 -9 10 -20 10 -11
0 -20 -4 -20 -10z"/>
<path d="M4825 3080 c3 -5 2 -10 -3 -10 -5 0 -12 -12 -15 -27 l-5 -28 15 23
c19 28 29 28 44 1 9 -17 8 -23 -2 -30 -12 -7 -12 -9 -1 -9 8 0 16 9 19 20 3
11 9 20 14 20 5 0 9 7 9 15 0 9 -10 15 -26 15 -14 0 -23 4 -19 10 3 6 -3 10
-15 10 -12 0 -18 -4 -15 -10z"/>
<path d="M4960 3081 c0 -5 11 -11 24 -13 17 -4 23 -1 19 9 -6 14 -43 18 -43 4z"/>
<path d="M4760 3055 c0 -10 29 -24 34 -17 3 6 -3 12 -14 15 -11 3 -20 4 -20 2z"/>
<path d="M5085 3020 c-3 -5 -1 -10 4 -10 6 0 11 5 11 10 0 6 -2 10 -4 10 -3 0
-8 -4 -11 -10z"/>
<path d="M4808 3003 c7 -3 16 -2 19 1 4 3 -2 6 -13 5 -11 0 -14 -3 -6 -6z"/>
<path d="M4942 2996 c7 -8 15 -12 17 -11 5 6 -10 25 -20 25 -5 0 -4 -6 3 -14z"/>
<path d="M4930 2972 c0 -5 7 -15 15 -22 8 -7 15 -8 15 -2 0 5 -7 15 -15 22 -8
7 -15 8 -15 2z"/>
<path d="M5110 2893 c-1 -21 -2 -62 -3 -91 -1 -30 0 -55 4 -58 3 -2 7 39 7 91
1 52 -1 95 -3 95 -3 0 -5 -17 -5 -37z"/>
<path d="M5025 2910 c-3 -5 -1 -10 4 -10 6 0 11 5 11 10 0 6 -2 10 -4 10 -3 0
-8 -4 -11 -10z"/>
<path d="M4990 2891 c0 -5 5 -13 10 -16 6 -3 10 -2 10 4 0 5 -4 13 -10 16 -5
3 -10 2 -10 -4z"/>
<path d="M5030 2830 c0 -5 5 -10 11 -10 5 0 7 5 4 10 -3 6 -8 10 -11 10 -2 0
-4 -4 -4 -10z"/>
<path d="M5048 2543 c7 -3 16 -2 19 1 4 3 -2 6 -13 5 -11 0 -14 -3 -6 -6z"/>
<path d="M5035 2440 c3 -5 8 -10 11 -10 2 0 4 5 4 10 0 6 -5 10 -11 10 -5 0
-7 -4 -4 -10z"/>
<path d="M2349 3273 c-12 -15 -12 -16 4 -10 10 4 23 7 28 7 6 0 7 5 4 10 -9
15 -21 12 -36 -7z"/>
<path d="M2950 3141 c0 -26 17 -36 36 -21 11 10 12 16 3 26 -17 20 -39 17 -39
-5z"/>
<path d="M1864 2984 c-3 -19 -3 -39 2 -44 5 -5 9 10 10 36 1 53 -3 56 -12 8z"/>
<path d="M2530 3161 c0 -5 -3 -18 -6 -28 -5 -16 -4 -16 10 1 18 23 20 36 6 36
-5 0 -10 -4 -10 -9z"/>
<path d="M2555 3131 c-3 -11 -17 -26 -30 -35 -25 -16 -34 -46 -15 -46 6 0 10
10 10 22 0 35 12 12 15 -29 2 -21 1 -30 -2 -20 -5 19 -23 13 -23 -8 0 -9 8
-12 25 -9 22 4 25 1 25 -26 l0 -30 92 0 c80 0 89 2 73 14 -12 8 -16 20 -12 35
3 11 1 21 -5 21 -6 0 -7 7 -4 16 6 15 -52 79 -63 68 -3 -3 -1 -8 5 -12 9 -6
44 -68 44 -79 0 -1 -4 -3 -10 -3 -5 0 -10 6 -10 14 0 8 -7 16 -15 20 -8 3 -15
2 -15 -3 0 -5 -10 -12 -22 -16 -15 -4 -18 -8 -10 -12 7 -3 19 1 27 7 9 7 15 8
15 2 0 -22 -68 -30 -88 -10 -15 15 -15 51 0 66 8 8 9 12 1 12 -6 0 -14 -6 -16
-12 -4 -10 -6 -10 -6 -1 -1 18 16 25 36 15 10 -5 27 -6 38 -1 l20 8 -20 0
c-16 1 -17 3 -6 10 11 7 7 13 -17 25 -29 15 -31 15 -37 -3z m35 -11 c0 -5 -4
-10 -10 -10 -5 0 -10 5 -10 10 0 6 5 10 10 10 6 0 10 -4 10 -10z"/>
<path d="M2724 3038 c0 -13 6 -17 21 -13 17 4 17 3 -2 -6 -13 -7 -23 -18 -23
-25 0 -22 22 -28 36 -10 7 10 17 15 23 11 6 -3 11 -2 11 4 0 6 6 8 14 5 7 -3
16 2 20 12 4 11 2 15 -6 11 -52 -21 -53 -21 -41 -6 11 13 8 17 -20 26 -29 9
-33 8 -33 -9z"/>
<path d="M2491 3024 c0 -11 3 -14 6 -6 3 7 2 16 -1 19 -3 4 -6 -2 -5 -13z"/>
<path d="M2866 3001 c-5 -7 -1 -20 8 -30 16 -17 16 -19 0 -25 -9 -4 -15 -9
-12 -11 3 -3 18 1 33 9 25 13 26 16 11 22 -10 4 -21 16 -25 27 -6 15 -10 17
-15 8z"/>
<path d="M2890 2996 c0 -3 9 -10 20 -16 11 -6 20 -8 20 -6 0 3 -9 10 -20 16
-11 6 -20 8 -20 6z"/>
<path d="M2472 2930 c0 -19 2 -27 5 -17 2 9 2 25 0 35 -3 9 -5 1 -5 -18z"/>
<path d="M2598 2923 c23 -2 61 -2 85 0 23 2 4 4 -43 4 -47 0 -66 -2 -42 -4z"/>
<path d="M2807 2909 c-7 -28 -6 -31 10 -14 6 6 8 18 3 24 -5 9 -9 5 -13 -10z"/>
<path d="M2491 2834 c0 -11 3 -14 6 -6 3 7 2 16 -1 19 -3 4 -6 -2 -5 -13z"/>
<path d="M2515 2840 c3 -5 8 -10 11 -10 2 0 4 5 4 10 0 6 -5 10 -11 10 -5 0
-7 -4 -4 -10z"/>
<path d="M2597 2832 c3 -12 9 -25 14 -28 14 -8 11 10 -6 32 -13 18 -14 18 -8
-4z"/>
<path d="M2626 2837 c3 -10 9 -15 12 -12 3 3 0 11 -7 18 -10 9 -11 8 -5 -6z"/>
<path d="M2541 2824 c0 -11 3 -14 6 -6 3 7 2 16 -1 19 -3 4 -6 -2 -5 -13z"/>
<path d="M2625 2786 c-6 -6 -8 -22 -5 -36 6 -23 7 -22 12 10 7 41 6 42 -7 26z"/>
<path d="M2522 2770 c0 -14 2 -19 5 -12 2 6 2 18 0 25 -3 6 -5 1 -5 -13z"/>
<path d="M2496 2767 c3 -10 9 -15 12 -12 3 3 0 11 -7 18 -10 9 -11 8 -5 -6z"/>
<path d="M2601 2734 c0 -11 3 -14 6 -6 3 7 2 16 -1 19 -3 4 -6 -2 -5 -13z"/>
<path d="M2471 2524 c0 -11 3 -14 6 -6 3 7 2 16 -1 19 -3 4 -6 -2 -5 -13z"/>
<path d="M2755 2320 c-3 -6 1 -7 9 -4 18 7 21 14 7 14 -6 0 -13 -4 -16 -10z"/>
<path d="M2690 2276 c4 -4 16 -4 26 2 16 9 14 10 -8 9 -15 -1 -23 -6 -18 -11z"/>
<path d="M2430 3109 c-7 -27 -9 -53 -6 -56 3 -4 6 2 6 13 1 10 7 36 14 57 8
20 10 37 6 37 -4 0 -13 -23 -20 -51z"/>
<path d="M2389 3093 c-12 -3 -18 -19 -21 -53 -3 -27 -13 -61 -23 -77 -22 -32
-29 -96 -15 -138 8 -25 8 -21 4 20 -4 37 -3 46 5 35 6 -8 11 -26 12 -40 1 -20
3 -18 9 10 7 33 8 31 10 -20 l2 -55 8 48 c6 35 5 57 -5 80 -8 19 -14 25 -15
15 0 -10 -4 -18 -10 -18 -16 0 -11 37 7 56 16 15 18 14 28 -22 l11 -39 5 38
c3 20 1 37 -3 37 -4 0 -8 10 -8 23 0 16 3 18 9 8 7 -11 10 -9 16 8 3 11 3 26
-2 33 -4 7 -6 23 -4 36 1 12 1 21 -1 21 -2 -1 -10 -3 -19 -6z"/>
<path d="M2336 2775 c-3 -9 -6 -24 -5 -33 0 -9 5 -4 10 12 9 32 6 48 -5 21z"/>
<path d="M2140 2705 c0 -8 5 -15 10 -15 6 0 10 7 10 15 0 8 -4 15 -10 15 -5 0
-10 -7 -10 -15z"/>
<path d="M2280 2576 c0 -2 9 -6 20 -9 11 -3 18 -1 14 4 -5 9 -34 13 -34 5z"/>
</g>
</svg>
